<svg preserveAspectRatio="xMidYMid meet" data-bbox="39.876 65.264 120.248 69.472" xmlns="http://www.w3.org/2000/svg" viewBox="39.876 65.264 120.248 69.472" data-type="color" role="presentation" aria-hidden="true" aria-label=""> <g> <path fill="#7e7e78" d="M158.445 131.378c-10.942 0-19.845-8.902-19.845-19.844 0-.256-.067-.492-.169-.709-.219-.672-.83-1.166-1.575-1.166-12.268 0-22.315 9.578-23.122 21.645-10.256-.758-18.373-9.324-18.373-19.769a1.64 1.64 0 0 0-.169-.708c-.219-.673-.83-1.168-1.575-1.168-12.207 0-22.219 9.482-23.113 21.465-10.271-.743-18.405-9.315-18.405-19.771a1.678 1.678 0 0 0-3.356 0c0 12.793 10.408 23.201 23.201 23.201.04 0 .074-.02.113-.023.013 0 .024.008.038.008.927 0 1.678-.752 1.678-1.678 0-10.424 8.084-18.978 18.311-19.766.808 12.066 10.856 21.641 23.122 21.641.698 0 1.296-.428 1.548-1.035.149-.251.258-.527.258-.841 0-10.425 8.085-18.979 18.311-19.766.808 12.066 10.856 21.641 23.122 21.641a1.678 1.678 0 0 0 0-3.357z" data-color="1"/> <path fill="#7e7e78" d="M53.171 91.855c-7.331 0-13.295-5.964-13.295-13.295 0-7.332 5.964-13.296 13.295-13.296s13.295 5.964 13.295 13.296c.001 7.331-5.964 13.295-13.295 13.295zm0-23.233c-5.48 0-9.939 4.459-9.939 9.939 0 5.479 4.459 9.938 9.939 9.938s9.939-4.459 9.939-9.938c0-5.481-4.459-9.939-9.939-9.939z" data-color="1"/> </g> </svg>