<svg preserveAspectRatio="xMidYMid meet" data-bbox="32.7 22.7 134.8 156.2" viewBox="32.7 22.7 134.8 156.2" xmlns="http://www.w3.org/2000/svg" data-type="color" role="presentation" aria-hidden="true" aria-label=""> <g> <path d="M151.1 123.7h-8.4c0 .1-6.1-3.4-6.1-3.4l16.2-4.3-.7-2.4-18.6 5-9.3-5.4 16.2-4.3-.7-2.4-18.6 5-18.5-10.7 18.5-10.7 18.6 5 .7-2.4-16.2-4.3 9.3-5.4 18.6 5 .7-2.4-16.2-4.3 6.1-3.5 15.9.2 8.9-16-18.3-.3-7.7 13.8-6.1 3.5 4.3-16.2-2.4-.7-5 18.6-9.3 5.4 4.3-16.2-2.4-.7-5 18.6-18.5 10.7V77.1L115 63.5l-1.8-1.8-11.8 11.8V62.7L115 49.1l-1.8-1.8-11.8 11.8V52l2.1-3.5 6-10.1-9.4-15.7-9.4 15.7 6 10.1 2.1 3.5v7.1L87 47.3l-1.8 1.8 13.6 13.6v10.8L87 61.7l-1.8 1.8 13.6 13.6v21.4L80.3 87.8l-5-18.6-2.4.7 4.3 16.2-9.3-5.4-5-18.6-2.4.7L64.8 79l-6.1-3.5L51 61.7l-18.3.3 8.9 16 15.9-.2 6.1 3.5-16.2 4.3.7 2.4 18.6-5 9.3 5.4-16.2 4.3.7 2.4 18.6-5 18.5 10.7-18.5 10.7-18.6-5-.7 2.4 16.2 4.3-9.3 5.4-18.6-5-.7 2.4 16.2 4.3-6.1 3.5h-8.4c0-.1-7.5-.2-7.5-.2l-8.9 16 18.3.3 7.7-13.8 6.1-3.5-4.3 16.2 2.4.7 5-18.6 9.3-5.4-4.3 16.2 2.4.7 5-18.6 18.5-10.7v21.4l-13.6 13.6 1.8 1.8 11.8-11.8v10.8l-13.6 13.6 1.8 1.8 11.8-11.8v7.1l-2.1 3.5-6 10.1 9.4 15.7 9.4-15.7-6-10.1-2.1-3.5v-7.1l11.8 11.8 1.8-1.8-13.6-13.6v-10.8l11.8 11.8 1.8-1.8-13.6-13.6v-21.4l18.5 10.7 5 18.6 2.4-.7-4.3-16.2 9.3 5.4 5 18.6 2.4-.7-4.3-16.2 6.1 3.5 7.7 13.8 18.3-.3-8.9-16h-7.5zm1 7.1H147l-2.5-4.4h5.1zM147 70.5h5.1l-2.5 4.6h-5.1zm3.6-6.5 12.6.2-6.1 11h-4.6l3.9-7h-8c0-.1 2.2-4.1 2.2-4.1ZM100 49.3l-2.6-4.4 2.6-4.4 2.6 4.4zm0-21.6 6.4 10.8-2.4 3.9-4.1-6.9-4.1 6.9-2.4-3.9 6.4-10.8ZM50.4 75.1l-2.5-4.5H53l2.5 4.4h-5.1ZM36.8 64.2l12.6-.2 2.2 4h-8c0 .1 3.9 7.1 3.9 7.1h-4.6zM53 130.8h-5.1l2.5-4.6h5.1zm-3.6 6.5-12.6-.2 6.1-11h4.6l-3.9 7h8c0 .1-2.2 4.1-2.2 4.1ZM100 152l2.6 4.4-2.6 4.4-2.6-4.4zm0 21.7-6.4-10.8L96 159l4.1 6.9 4.1-6.9 2.4 3.9-6.4 10.8Zm50.6-36.4-2.2-4h8c0-.1-3.9-7.1-3.9-7.1h4.6l6.1 10.9z" fill="#7e7e78" data-color="1"/> </g> </svg>