<svg preserveAspectRatio="xMidYMid meet" data-bbox="45.49 13.664 109.02 172.671" viewBox="45.49 13.664 109.02 172.671" xmlns="http://www.w3.org/2000/svg" data-type="color" role="presentation" aria-hidden="true" aria-label=""> <g> <path d="M97.965 186.332a5.512 5.512 0 0 1-5.507-5.506V86.371l-.374-.046c-5.072-.616-8.897-4.937-8.897-10.052.143-3.091 7.203-62.609 14.779-62.609a5.403 5.403 0 0 1 5.399 5.396l.108 41.202v120.562a5.516 5.516 0 0 1-5.508 5.508zM93.337 84.609c.159 0 .313.04.443.115.285.167.463.459.463.758v95.342a3.727 3.727 0 0 0 3.722 3.723 3.726 3.726 0 0 0 3.722-3.723V60.267l-.108-41.202a3.618 3.618 0 0 0-3.614-3.614h-.081l-.075.03c-4.967 1.96-12.838 53.819-12.838 60.796 0 4.544 3.697 8.285 8.24 8.338l.126-.006zM61.281 186.332a5.512 5.512 0 0 1-5.507-5.506V71.188l-.211-.124C49.548 67.554 45.5 58.615 45.49 48.822V17.196c0-1.946 1.355-3.529 3.021-3.529 1.665 0 3.021 1.583 3.021 3.529v25.642c0 .945.566 1.745 1.236 1.745s1.236-.8 1.236-1.745V17.196c0-1.946 1.355-3.529 3.021-3.529 1.665 0 3.021 1.583 3.021 3.529v25.642c0 .945.566 1.745 1.236 1.745.668 0 1.233-.8 1.233-1.745V17.196c0-1.946 1.355-3.529 3.021-3.529 1.665 0 3.021 1.583 3.021 3.529v25.642c0 .945.566 1.745 1.236 1.745.668 0 1.233-.8 1.233-1.745V17.196c0-1.946 1.355-3.529 3.021-3.529s3.021 1.583 3.021 3.529v31.37c0 10.099-3.95 18.93-10.063 22.498l-.211.124v109.637a5.522 5.522 0 0 1-5.513 5.507zM47.301 48.565c0 9.788 3.93 18.342 9.78 21.284a.888.888 0 0 1 .491.798v110.179a3.727 3.727 0 0 0 3.722 3.723 3.727 3.727 0 0 0 3.722-3.723V70.65a.89.89 0 0 1 .491-.799c5.85-2.943 9.78-11.394 9.78-21.028V17.196c0-.945-.565-1.745-1.235-1.745s-1.236.8-1.236 1.745v25.642c0 1.946-1.354 3.529-3.018 3.529-1.665 0-3.021-1.583-3.021-3.529V17.196c0-.945-.566-1.745-1.236-1.745s-1.236.8-1.236 1.745v25.642c0 1.946-1.354 3.529-3.018 3.529-1.665 0-3.021-1.583-3.021-3.529V17.196c0-.945-.566-1.745-1.236-1.745s-1.236.8-1.236 1.745v25.642c0 1.946-1.355 3.529-3.021 3.529s-3.021-1.583-3.021-3.529V17.196c0-.945-.566-1.745-1.236-1.745s-1.236.8-1.236 1.745v.426h.016v30.943zm86.816 137.77a5.513 5.513 0 0 1-5.507-5.507l-.003-104.094-.248-.113c-8.615-3.957-14.636-16.628-14.641-30.814 0-17.722 9.149-32.139 20.396-32.139s20.396 14.417 20.396 32.139c0 14.186-6.021 26.859-14.641 30.817l-.248.113.003 104.091a5.512 5.512 0 0 1-5.507 5.507zm0-170.884c-5.003 0-9.696 3.189-13.213 8.979-3.479 5.726-5.394 13.317-5.392 21.376 0 13.859 6.021 26.265 14.316 29.499a.886.886 0 0 1 .567.832l.003 104.69a3.728 3.728 0 0 0 3.723 3.723 3.726 3.726 0 0 0 3.722-3.723l-.003-104.69a.9.9 0 0 1 .568-.833c8.298-3.229 14.321-15.635 14.321-29.498-.001-16.738-8.35-30.355-18.612-30.355z" fill="#7e7e78" data-color="1"/> </g> </svg>