<svg preserveAspectRatio="none" data-bbox="31.999 20 136 160.001" viewBox="31.999 20 136 160.001" xmlns="http://www.w3.org/2000/svg" data-type="shape" role="presentation" aria-hidden="true" aria-label=""> <g> <path d="M117.376 109.042c-6.141-.007-11.98-2.981-17.387-5.616-5.029-2.451-9.066-5.432-11.197-10.783-2.244-5.636-3.074-12.034-3.495-18.048-.491-7.002-.12-13.954.402-20.941.343-4.597-7.456-5.747-8.134-1.102-.051.347-.092.697-.138 1.045l-.561-.603c-1.51-1.639-3.949-.985-5.001.688l-.023-.04-.151.348q-.026.057-.05.115c-.55 1.276-.992 2.414-.933 3.902.053 1.335.074 2.672.086 4.008.025 2.788-.085 5.596-.254 8.377-.301 4.968-1.228 10.066-3.073 15.136-.765 2.101-1.757 4.16-3.125 6.43a37 37 0 0 1-1.97 2.937q-.239.296-.482.588c-.468.56-.954 1.101-1.451 1.635a48.6 48.6 0 0 1-5.19 4.84c-.13.104-.992.769-1.002.788a40 40 0 0 1-1.166.824 30 30 0 0 1-3.252 1.931c-.321.161-1.034.502-1.275.616a22 22 0 0 0-.486.2q-.626.241-1.261.46a45 45 0 0 1-3.571 1.079c-1.278.322-2.567.536-3.858.79-1.167.229-2.218.747-3.403.554-1.678-.274-3.392.437-3.877 2.204-.417 1.521.515 3.588 2.201 3.882 1.309.223 2.337.542 3.582.969 1.511.518 3.13.65 4.722.657.108.001.215-.004.323-.005 6.757 1.468 13.48 3.661 18.632 8.151 3.969 3.458 6.271 8.185 7.754 13.16 1.708 5.735 2.756 11.7 4.043 17.54 1.608 7.297 3.163 14.607 4.849 21.886.361 1.556 2.035 2.554 3.556 2.325 1.677-.253 2.665-1.534 2.81-3.187 1.03-11.751 1.84-23.684 3.826-35.319.797-4.671 2.536-9.641 5.501-13.137 2.686-3.168 6.199-5.323 10.109-6.971 4.436-1.869 9.623-3.045 14.482-4.067 4.691-.99 3.54-8.241-1.112-8.246m-55.119-13.99c-.093.124-.06.081 0 0m26.831 25.903c-8.413 8.818-7.48 22.2-8.622 33.507l-.173 1.704-.166-.779c-1.321-6.229-2.42-12.561-4.391-18.627-1.807-5.56-4.469-10.834-8.71-14.933-3.476-3.36-7.576-5.783-11.998-7.624a38.9 38.9 0 0 0 11.175-7.052c6.142-5.508 10.185-13.007 12.434-20.978q.237 1.244.501 2.478c1.101 5.137 2.956 10.121 6.271 14.247 3.339 4.156 8.139 6.633 12.873 8.846 1.018.476 2.039.947 3.064 1.405-4.574 1.772-8.826 4.209-12.258 7.806"/> <path d="M165.642 50.267c-5.292-2.015-9.517-6.5-12.003-11.5-1.165-2.344-1.971-4.989-2.248-7.596-.34-3.2.521-6.332-.536-9.408-.616-1.794-2.661-2.335-4.083-1.079-2.061 1.82-2.681 4.438-2.731 7.108-.507 1.201-.961 2.29-1.114 3.733-.155 1.47-.176 2.926-.5 4.375a21.5 21.5 0 0 1-4.182 8.7c-3.758 4.716-9.123 7.836-14.692 9.989q-1.311.392-2.601 1.009c-3.746 1.796-1.109 8.146 2.846 6.76q1.369-.48 2.718-1.019c5.567-1.326 11.86 2.637 14.808 7.294 2.455 3.877 3.5 8.339 3.887 12.924-.706 4.762-.695 9.631.082 14.371.721 4.399 7.423 3.15 7.532-1.021.11-4.19.184-8.58-.176-12.905a43.2 43.2 0 0 1 2.152-8.678c1.175-3.259 2.78-6.368 4.691-9.254 1.861-2.81 4.155-5.808 6.937-7.749 2.439-1.702 1.93-5.019-.787-6.054m-11.68 9.925c-1.847 2.496-3.39 5.169-4.691 7.969a26.6 26.6 0 0 0-3.051-4.976c-2.474-3.173-5.691-5.78-9.263-7.425 2.917-2.082 5.55-4.548 7.732-7.5a27 27 0 0 0 3.084-5.403c2.6 4.911 6.486 8.911 11.233 11.6-1.79 1.795-3.499 3.647-5.044 5.735"/> </g> </svg>