<svg preserveAspectRatio="xMidYMid meet" data-bbox="19.995 21 160.008 158" viewBox="19.995 21 160.008 158" xmlns="http://www.w3.org/2000/svg" data-type="color" role="presentation" aria-hidden="true" aria-label=""> <g> <path d="M149.445 153.502c-6.972 0-10.616-2.65-13.829-4.991-3.045-2.214-5.918-4.303-11.717-4.303-5.83 0-8.71 2.095-11.759 4.315-3.205 2.334-6.842 4.979-13.783 4.979-6.945 0-10.582-2.647-13.787-4.979-3.049-2.219-5.929-4.315-11.759-4.315-5.803 0-8.676 2.093-11.717 4.309-3.205 2.336-6.842 4.985-13.791 4.985-6.972 0-10.613-2.65-13.825-4.989-3.045-2.214-5.918-4.305-11.717-4.305a1.765 1.765 0 0 1 0-3.532c6.941 0 10.578 2.645 13.783 4.979 3.049 2.219 5.929 4.315 11.759 4.315 5.807 0 8.68-2.093 11.721-4.309 3.205-2.336 6.838-4.985 13.787-4.985 6.972 0 10.613 2.65 13.825 4.989 3.045 2.214 5.918 4.305 11.721 4.305 5.799 0 8.672-2.091 11.717-4.305 3.213-2.338 6.854-4.989 13.825-4.989 6.941 0 10.578 2.645 13.783 4.979 3.049 2.219 5.933 4.315 11.763 4.315s8.71-2.095 11.759-4.315c3.205-2.332 6.842-4.979 13.787-4.979 1.379 0 2.556.101 3.591.308a1.764 1.764 0 0 1 1.383 2.076 1.76 1.76 0 0 1-2.071 1.386c-.81-.161-1.757-.239-2.903-.239-5.803 0-8.676 2.091-11.721 4.305-3.212 2.339-6.853 4.99-13.825 4.99z" fill="#7e7e78" data-color="1"/> <path d="M149.445 178.994c-6.972 0-10.616-2.65-13.829-4.991-3.045-2.214-5.918-4.303-11.717-4.303a1.765 1.765 0 0 1 0-3.532c6.941 0 10.578 2.645 13.783 4.979 3.049 2.219 5.933 4.315 11.763 4.315s8.71-2.095 11.759-4.315c3.205-2.332 6.842-4.979 13.787-4.979 1.379 0 2.556.101 3.591.308a1.764 1.764 0 0 1-.688 3.462c-.81-.161-1.757-.239-2.903-.239-5.803 0-8.676 2.091-11.721 4.305-3.212 2.34-6.853 4.99-13.825 4.99z" fill="#7e7e78" data-color="1"/> <path d="M126.891 179c-6.964 0-10.605-2.652-13.818-4.991-3.049-2.219-5.929-4.316-11.747-4.316s-8.699 2.097-11.747 4.316C86.365 176.348 82.725 179 75.76 179c-6.957 0-10.597-2.652-13.806-4.991-3.045-2.219-5.925-4.316-11.74-4.316a1.765 1.765 0 0 1 0-3.532c6.96 0 10.601 2.652 13.81 4.992 3.045 2.219 5.921 4.315 11.736 4.315 5.818 0 8.699-2.097 11.747-4.316 3.213-2.338 6.854-4.991 13.818-4.991s10.605 2.652 13.818 4.991c3.049 2.219 5.929 4.316 11.747 4.316.97 0 1.761.791 1.761 1.766a1.764 1.764 0 0 1-1.76 1.766z" fill="#7e7e78" data-color="1"/> <path d="M50.214 179c-6.964 0-10.605-2.652-13.818-4.991-3.049-2.219-5.929-4.316-11.747-4.316a1.765 1.765 0 0 1 0-3.532c6.964 0 10.605 2.652 13.818 4.991 3.049 2.219 5.929 4.316 11.747 4.316a1.765 1.765 0 0 1 0 3.532z" fill="#7e7e78" data-color="1"/> <path d="M133.523 103.738H61.832a1.765 1.765 0 0 1 0-3.532h71.691a1.765 1.765 0 0 1 0 3.532z" fill="#7e7e78" data-color="1"/> <path d="M133.523 76.356H62.027a1.765 1.765 0 0 1 0-3.532h71.496a1.765 1.765 0 0 1 0 3.532z" fill="#7e7e78" data-color="1"/> <path d="M133.523 131.736H61.832a1.765 1.765 0 0 1 0-3.532h71.691a1.765 1.765 0 0 1 0 3.532z" fill="#7e7e78" data-color="1"/> <path d="M145.258 140.07c-.97 0-1.761-.791-1.761-1.766V43.149c0-1.331.776-2.555 1.975-3.121l12.19-5.779a1.751 1.751 0 0 1 1.696.103c.508.324.818.887.818 1.492v9.765c0 .975-.791 1.766-1.761 1.766-.97 0-1.761-.791-1.761-1.766V38.63l-9.681 4.59.046 95.084a1.764 1.764 0 0 1-1.761 1.766z" fill="#7e7e78" data-color="1"/> <path d="M133.523 137.176c-.97 0-1.761-.791-1.761-1.766V43.119a15.193 15.193 0 0 1 8.92-13.828l16.737-7.553a8.18 8.18 0 0 1 7.866.594 8.245 8.245 0 0 1 3.774 6.95v9.954c0 .975-.791 1.766-1.761 1.766-.97 0-1.761-.791-1.761-1.766v-9.954c0-1.641-.787-3.095-2.162-3.985-1.368-.887-3.007-1.009-4.512-.341l-16.737 7.553a11.66 11.66 0 0 0-6.842 10.611v92.292c0 .973-.791 1.764-1.761 1.764z" fill="#7e7e78" data-color="1"/> <path d="M50.096 142.358c-.97 0-1.761-.791-1.761-1.766V43.149l-9.631-4.529v6.988c0 .975-.791 1.766-1.761 1.766-.97 0-1.761-.791-1.761-1.766v-9.765c0-.605.309-1.168.818-1.492a1.773 1.773 0 0 1 1.696-.103l12.19 5.781a3.463 3.463 0 0 1 1.971 3.12v97.443c0 .975-.791 1.766-1.761 1.766z" fill="#7e7e78" data-color="1"/> <path d="M61.832 137.176c-.97 0-1.761-.791-1.761-1.766V43.119c0-4.571-2.686-8.736-6.842-10.611l-16.733-7.553c-1.494-.668-3.136-.552-4.516.343-1.375.89-2.162 2.342-2.162 3.983v9.954c0 .975-.791 1.766-1.761 1.766-.97 0-1.761-.791-1.761-1.766v-9.954a8.244 8.244 0 0 1 3.774-6.948 8.18 8.18 0 0 1 7.87-.596l16.733 7.553c5.417 2.444 8.92 7.871 8.92 13.828v92.292c0 .975-.791 1.766-1.761 1.766z" fill="#7e7e78" data-color="1"/> </g> </svg>