<svg preserveAspectRatio="xMidYMid meet" data-bbox="20 20 160 160" viewBox="20 20 160 160" xmlns="http://www.w3.org/2000/svg" data-type="color" role="presentation" aria-hidden="true" aria-label=""> <g> <path d="M100 30.462c-38.344 0-69.538 31.195-69.538 69.538S61.656 169.538 100 169.538s69.538-31.195 69.538-69.538S138.344 30.462 100 30.462zm47.59 76.85c-.971-1.109-2.258-1.871-3.733-2.131a6.511 6.511 0 0 0-6.161 2.292v-13.02l22.061-22.061a65.353 65.353 0 0 1 5.981 23.928 1.821 1.821 0 0 0-.865.266l-17.283 10.726zm10.433-38.407L137.179 89.75a6.409 6.409 0 0 0-5.883-3.884 6.36 6.36 0 0 0-2.538.526v-.917c0-2.114-1.043-3.977-2.629-5.142l17.438-29.645a66.241 66.241 0 0 1 14.456 18.217zM140.692 48.29l-18.123 30.808c-.072-.002-.14-.022-.213-.022-3.529 0-6.4 2.87-6.4 6.398v.917a6.365 6.365 0 0 0-2.539-.526c-3.529 0-6.401 2.87-6.401 6.398v4.349A6.38 6.38 0 0 0 100 97.918a6.38 6.38 0 0 0-7.016-1.306v-4.348a6.406 6.406 0 0 0-6.4-6.398c-.902 0-1.76.188-2.539.526v-.916a6.406 6.406 0 0 0-6.4-6.398c-.073 0-.141.019-.213.022L59.308 48.29c11.21-8.841 25.34-14.136 40.692-14.136s29.482 5.295 40.692 14.136zm-84.258 2.397l17.439 29.646c-1.586 1.166-2.629 3.029-2.629 5.143v.916a6.362 6.362 0 0 0-2.539-.526 6.41 6.41 0 0 0-5.883 3.885L41.977 68.905a66.245 66.245 0 0 1 14.457-18.218zm-4.024 56.625L35.127 96.585a1.824 1.824 0 0 0-.865-.266 65.343 65.343 0 0 1 5.981-23.927l22.061 22.061v13.021a6.515 6.515 0 0 0-6.162-2.292c-1.475.259-2.762 1.022-3.732 2.13zm-18.248-6.98l16.695 10.362a6.453 6.453 0 0 0 .037 2.142l2.345 11.884a23.775 23.775 0 0 0 6.562 12.276l1.712 1.706a8.66 8.66 0 0 1 2.564 6.174v10.265c-17.911-11.708-29.8-31.887-29.915-54.809zm33.731 57.125c.016-.099.031-.199.031-.302v-12.278c0-3.362-1.312-6.521-3.694-8.896l-1.713-1.707a19.941 19.941 0 0 1-5.505-10.297l-2.344-11.884c-.14-.705.008-1.42.414-2.012a2.636 2.636 0 0 1 1.728-1.113 2.66 2.66 0 0 1 3.038 1.98l1.211 4.939c.17.692.592 1.247 1.149 1.589l.048.03.034.021 4.607 2.814a7.27 7.27 0 0 1 3.461 6.167 1.922 1.922 0 0 0 3.846 0c0-3.829-2.031-7.45-5.301-9.448l-2.757-1.684c.002-.035.005-.069.005-.104v-23.01a2.556 2.556 0 0 1 2.554-2.553c1.315 0 2.4.998 2.539 2.276v17.222a1.922 1.922 0 0 0 3.846 0V85.474a2.557 2.557 0 0 1 2.555-2.553 2.556 2.556 0 0 1 2.554 2.553v23.732a1.922 1.922 0 0 0 3.846 0V91.985a2.557 2.557 0 0 1 2.539-2.276 2.556 2.556 0 0 1 2.554 2.553l-.016 16.944a1.923 1.923 0 0 0 3.846 0l.016-7.001a2.557 2.557 0 0 1 2.539-2.276 2.557 2.557 0 0 1 2.554 2.554v19.328a19.869 19.869 0 0 1-5.883 14.168 12.477 12.477 0 0 0-3.694 8.896v4.59a1.923 1.923 0 0 0 3.846 0v-4.59c0-2.333.91-4.526 2.563-6.173a23.83 23.83 0 0 0 5.09-7.48 23.834 23.834 0 0 0 5.091 7.48 8.656 8.656 0 0 1 2.563 6.173v4.59a1.923 1.923 0 0 0 3.846 0v-4.59c0-3.362-1.312-6.521-3.694-8.896a19.873 19.873 0 0 1-5.883-14.168v-19.328a2.557 2.557 0 0 1 2.555-2.554c1.315 0 2.4.999 2.538 2.277l.016 7a1.923 1.923 0 0 0 3.846 0l-.016-16.944a2.557 2.557 0 0 1 2.555-2.553c1.315 0 2.4.998 2.539 2.276v17.222a1.922 1.922 0 1 0 3.845 0V85.474a2.557 2.557 0 0 1 2.555-2.553 2.557 2.557 0 0 1 2.555 2.553v16.705a1.922 1.922 0 0 0 3.846 0V91.985a2.556 2.556 0 0 1 2.538-2.276 2.557 2.557 0 0 1 2.555 2.553v23.009c0 .035.003.069.005.104l-2.758 1.684a11.139 11.139 0 0 0-5.3 9.448 1.923 1.923 0 0 0 3.846 0 7.27 7.27 0 0 1 3.46-6.167l4.679-2.858.03-.021a2.56 2.56 0 0 0 1.129-1.575l1.212-4.939a2.66 2.66 0 0 1 3.037-1.98c.708.125 1.321.52 1.728 1.113.406.592.554 1.307.415 2.012l-2.344 11.883a19.948 19.948 0 0 1-5.505 10.298l-1.712 1.707a12.475 12.475 0 0 0-3.694 8.896v12.278c0 .104.015.203.031.302A65.424 65.424 0 0 1 100 165.845a65.406 65.406 0 0 1-32.107-8.388zm68.03-2.316v-10.265c0-2.334.91-4.526 2.563-6.174l1.712-1.707a23.766 23.766 0 0 0 6.562-12.275l2.344-11.884c.142-.719.134-1.438.038-2.142l16.695-10.362c-.114 22.922-12.003 43.101-29.914 54.809z" fill="#7e7e78" data-color="1"/> <path d="M100 20c-44.112 0-80 35.888-80 80s35.888 80 80 80 80-35.888 80-80-35.888-80-80-80zm0 156.308c-42.076 0-76.308-34.232-76.308-76.308 0-42.076 34.231-76.308 76.308-76.308 42.076 0 76.308 34.231 76.308 76.308 0 42.076-34.232 76.308-76.308 76.308z" fill="#7e7e78" data-color="1"/> <path d="M91.033 72.479c3.922 3.699 7.791 6.197 7.954 6.301a1.877 1.877 0 0 0 2.027 0c.163-.104 4.032-2.602 7.954-6.301 5.484-5.171 8.264-10.005 8.264-14.369 0-6.083-4.83-11.033-10.766-11.033-2.337 0-4.613.791-6.465 2.212a10.644 10.644 0 0 0-6.465-2.212c-5.937 0-10.766 4.949-10.766 11.033-.001 4.364 2.779 9.198 8.263 14.369zm2.503-21.692c1.938 0 3.744.804 5.085 2.266a1.876 1.876 0 0 0 2.76 0c1.34-1.462 3.146-2.266 5.085-2.266 3.877 0 7.031 3.285 7.031 7.323 0 6.237-8.957 13.731-13.496 16.876-4.54-3.141-13.495-10.627-13.495-16.876-.002-4.038 3.153-7.323 7.03-7.323z" fill="#7e7e78" data-color="1"/> </g> </svg>