<svg preserveAspectRatio="xMidYMid meet" data-bbox="20 41.502 159.994 116.998" viewBox="20 41.502 159.994 116.998" xmlns="http://www.w3.org/2000/svg" data-type="color" role="presentation" aria-hidden="true" aria-label=""> <g> <path d="M178.527 85.774c-.201 0-.409-.042-.604-.13l-6.664-3.017a5.355 5.355 0 0 1-3.029-3.846c-.866-4.428-1.621-9.197-2.308-14.579-.942-7.378-2.928-12.335-5.739-14.336-1.348-.962-2.891-1.235-4.719-.836l-4.974 1.742a1.458 1.458 0 0 1-1.224-.121l-4.129-2.43c-.27-.06-2.075-.499-2.771 1.354a1.469 1.469 0 0 1-2.077.78l-2.807-1.525a2.035 2.035 0 0 0-1.792-.072l-4.017 1.779a1.463 1.463 0 0 1-1.727-.412c-1.07-1.301-4.417-4.853-7.009-5.647a.367.367 0 0 0-.39.117c-1.607 1.805-5.77 6.466-9.017 9.964a30.528 30.528 0 0 1-10.139 7.211l-.869.376a30.262 30.262 0 0 1-4.612 1.531c-3.971.981-17.202 4.71-20.676 11.447a1.47 1.47 0 0 1-1.986.632 1.49 1.49 0 0 1-.628-1.999c3.934-7.629 17.108-11.605 22.588-12.959a27.287 27.287 0 0 0 4.164-1.383l.843-.365a27.553 27.553 0 0 0 9.163-6.516c3.231-3.481 7.375-8.119 8.976-9.919a3.335 3.335 0 0 1 3.438-.975c3.045.933 6.263 4.18 7.682 5.745l3.03-1.343a4.993 4.993 0 0 1 4.375.179l1.54.836c1.601-2.056 4.278-2.105 5.947-1.517l3.797 2.208 4.509-1.57c2.807-.624 5.18-.18 7.209 1.266 3.553 2.528 5.894 8.039 6.96 16.377.679 5.318 1.425 10.024 2.276 14.386a2.381 2.381 0 0 0 1.351 1.715l6.661 3.016a1.486 1.486 0 0 1-.602 2.836z" fill="#7e7e78" data-color="1"/> <path d="M143.173 53.923a1.47 1.47 0 0 1-1.236-.677l-2.182-3.391a1.487 1.487 0 0 1 .434-2.049 1.464 1.464 0 0 1 2.035.438l2.182 3.391a1.487 1.487 0 0 1-.434 2.049 1.455 1.455 0 0 1-.799.239z" fill="#7e7e78" data-color="1"/> <path d="M88.654 96.306a1.48 1.48 0 0 1-1.468-1.385 1.482 1.482 0 0 1 1.371-1.578l5.458-.367 14.84-5.33c1.166-.359 1.835-1.507 1.591-2.636a2.214 2.214 0 0 0-2.519-1.732l-16.533 3.558a1.55 1.55 0 0 1-.53.016L74.81 84.384c-4.92-.754-8.621-4.952-8.608-9.765.005-2.266.765-4.32 2.262-6.104l13.763-11.803c3.493-3.716 3.725-6.172 3.446-7.45l-10.239 5.782-7.495 4.48c-.471.195-19.902 6.886-29.107 11.259a28.18 28.18 0 0 1-12.011 2.696c-.813 0-1.473-.664-1.473-1.483s.66-1.483 1.473-1.483c3.712 0 7.431-.833 10.755-2.413 9.354-4.443 28.333-10.979 29.136-11.254l7.25-4.37 11.615-6.559a1.466 1.466 0 0 1 1.779.264c.182.19 4.37 4.747-3.107 12.681L70.542 70.6c-.88 1.081-1.393 2.454-1.395 4.026-.01 3.357 2.617 6.292 6.107 6.828l15.787 2.427 16.346-3.516c2.794-.446 5.353 1.319 5.934 4.013.57 2.628-.986 5.301-3.543 6.083l-14.966 5.377a1.466 1.466 0 0 1-.396.084l-5.661.381c-.034.001-.067.003-.101.003z" fill="#7e7e78" data-color="1"/> <path d="M88.467 106.275a1.476 1.476 0 0 1-1.462-1.325 1.48 1.48 0 0 1 1.307-1.631l8.313-.891 17.02-9.088c.679-.672.942-1.649.657-2.475-.371-1.07-1.609-1.726-2.823-1.486a1.477 1.477 0 0 1-1.725-1.174 1.482 1.482 0 0 1 1.166-1.737c2.656-.523 5.305.952 6.161 3.42.693 1.999.048 4.325-1.605 5.787a1.456 1.456 0 0 1-.281.195l-17.442 9.313a1.462 1.462 0 0 1-.534.164l-8.594.92a1.706 1.706 0 0 1-.158.008z" fill="#7e7e78" data-color="1"/> <path d="M96.505 128.057H84.987c-4.037 0-8.041-.61-11.9-1.813l-23.87-7.437-18.082-10.389-5.773-2.244a1.488 1.488 0 0 1-.839-1.919 1.462 1.462 0 0 1 1.906-.844l5.971 2.339 17.983 10.355 23.572 7.309a37.104 37.104 0 0 0 11.031 1.678h11.519c.379 0 .752-.055 1.112-.162l9.599-2.869c.626-.188.987-.833.821-1.469a1.205 1.205 0 0 0-1.343-.889l-6.899 1.047a1.51 1.51 0 0 1-.35.011l-13.33-1.206a3.905 3.905 0 0 1-3.556-3.917c0-2.048 1.527-3.73 3.551-3.915l12.792-1.179 12.405-8.792c.433-.582.534-1.349.248-1.994-.419-.946-1.502-1.129-1.548-1.136a1.488 1.488 0 0 1-1.233-1.686c.121-.806.856-1.374 1.655-1.248.28.04 2.752.46 3.816 2.863.77 1.742.449 3.81-.818 5.271-.077.09-.165.169-.262.238l-12.889 9.136c-.211.148-.457.24-.714.264l-13.185 1.216a.957.957 0 0 0-.872.962.96.96 0 0 0 .874.963l13.153 1.19 6.725-1.02c2.083-.328 4.088.999 4.628 3.064.573 2.196-.669 4.422-2.831 5.067l-9.595 2.868a6.81 6.81 0 0 1-1.954.287zm15.813-25.211h.032-.032z" fill="#7e7e78" data-color="1"/> <path d="M153.869 146.601c-.636 0-1.22-.417-1.41-1.062a1.483 1.483 0 0 1 .992-1.842 38.178 38.178 0 0 1 5.985-1.308c3.746-.494 7.373-.566 10.774-.207a1.481 1.481 0 0 1 1.311 1.629 1.488 1.488 0 0 1-1.618 1.321c-3.171-.335-6.562-.267-10.084.198-1.797.238-3.607.634-5.532 1.208a1.442 1.442 0 0 1-.418.063z" fill="#7e7e78" data-color="1"/> <path d="M21.472 152.502a1.472 1.472 0 0 1-1.375-.955 1.485 1.485 0 0 1 .851-1.912c7.859-3.009 11.091-8.378 14.014-16.636 2.077-5.866 5.806-14.013 14.197-17.005a1.467 1.467 0 0 1 1.88.902 1.486 1.486 0 0 1-.896 1.893c-7.127 2.54-10.375 9.461-12.408 15.205-3.132 8.845-6.858 15.01-15.739 18.41-.173.066-.35.098-.524.098z" fill="#7e7e78" data-color="1"/> <path d="M146.946 158.5a1.46 1.46 0 0 1-1.034-.428 1.488 1.488 0 0 1-.014-2.096c2.47-2.52 8.041-9.078 6.431-15.51-.331-1.321-.946-2.501-2.121-4.076-3.957-5.301-8.677-7.503-14.142-10.053-4.037-1.885-8.212-3.833-12.52-7.238-3.736-2.955-7.038-6.633-9.811-10.934a1.49 1.49 0 0 1 .433-2.051 1.465 1.465 0 0 1 2.037.436c2.596 4.028 5.679 7.465 9.159 10.217 4.038 3.191 8.056 5.067 11.942 6.879 5.581 2.606 10.854 5.065 15.257 10.962 1.409 1.888 2.193 3.423 2.623 5.133 1.976 7.894-4.37 15.44-7.191 18.317a1.467 1.467 0 0 1-1.049.442z" fill="#7e7e78" data-color="1"/> <path d="M133.865 155.457a7.247 7.247 0 0 1-2.425-.415 1.485 1.485 0 0 1-.896-1.893 1.476 1.476 0 0 1 1.88-.902c1.468.524 3.244.18 4.414-.859 1.062-.944 1.72-2.512 1.76-4.192.034-1.525-.393-3.198-1.272-4.97-2.733-5.519-8.302-9.284-13.769-12.667a1.486 1.486 0 0 1-.484-2.038 1.461 1.461 0 0 1 2.024-.487c5.832 3.606 11.784 7.65 14.865 13.87 1.093 2.208 1.625 4.349 1.578 6.361-.059 2.528-1.062 4.841-2.754 6.345-1.354 1.203-3.135 1.847-4.921 1.847z" fill="#7e7e78" data-color="1"/> <path d="M39.947 151.186c-.366 0-.741-.045-1.126-.143a1.483 1.483 0 0 1-1.062-1.803 1.467 1.467 0 0 1 1.791-1.07c.957.246 2.224-.468 3.741-2.136 1.615-1.774 2.736-3.21 3.636-4.66.907-1.462 1.696-3.125 2.46-4.734 1.783-3.761 3.626-7.648 7.303-9.972 1.704-1.079 3.362-1.386 4.8-.881a1.481 1.481 0 0 1-.965 2.802c-.751-.259-1.743.256-2.268.589-2.955 1.869-4.538 5.207-6.214 8.74-.799 1.682-1.625 3.423-2.62 5.028-.998 1.608-2.22 3.178-3.963 5.092-.754.829-2.866 3.148-5.513 3.148z" fill="#7e7e78" data-color="1"/> <path d="M102.274 153.56h-.136c-3.263-.026-6.405-.819-9.442-1.588-1.664-.42-3.329-.841-5.011-1.134a32.986 32.986 0 0 0-15.296.981 1.468 1.468 0 0 1-1.84-.981 1.486 1.486 0 0 1 .974-1.853 35.818 35.818 0 0 1 16.662-1.068c1.754.304 3.492.741 5.227 1.181 3.003.758 5.838 1.475 8.749 1.496 1.674.063 2.928-.262 3.813-.844.923-.606 1.45-1.687 1.225-2.512-.222-.815-1.08-1.493-2.096-2.229l-3.45-2.501c-1.364-.988-3.233-2.342-4-4.473-.494-1.374-.326-3.008.442-4.262.634-1.039 1.601-1.686 2.717-1.821.832-.124 1.54.483 1.637 1.295a1.48 1.48 0 0 1-1.286 1.649c-.214.026-.403.171-.562.431-.292.481-.367 1.179-.181 1.699.423 1.174 1.588 2.088 2.952 3.077l3.45 2.501c1.077.782 2.701 1.961 3.216 3.852.565 2.08-.444 4.457-2.455 5.779-1.359.891-3.097 1.325-5.309 1.325z" fill="#7e7e78" data-color="1"/> <path d="M61.852 149.382c-.484 0-.957-.24-1.24-.68a1.49 1.49 0 0 1 .441-2.049c.973-.632 1.845-1.456 2.768-2.327 1.029-.973 2.093-1.98 3.372-2.776 3.581-2.233 7.703-2.215 11.717-2.212 1.923.01 3.759.011 5.514-.212-1.022-1.046-1.401-2.672-.989-4.306.332-1.321 1.073-2.387 1.727-3.328a1.47 1.47 0 0 1 2.051-.364 1.49 1.49 0 0 1 .361 2.065c-.534.767-1.085 1.56-1.286 2.355-.155.618-.046 1.247.267 1.53.131.117.288.225.444.336.666.476 1.906 1.361 1.628 2.926a1.478 1.478 0 0 1-1.046 1.165c-2.839.814-5.821.807-8.679.799-3.768-.019-7.292-.023-10.159 1.768-1.029.64-1.941 1.502-2.907 2.416-.978.923-1.989 1.88-3.188 2.659a1.483 1.483 0 0 1-.796.235z" fill="#7e7e78" data-color="1"/> </g> </svg>