<svg preserveAspectRatio="xMidYMid meet" data-bbox="20.5 20 160 160" width="201" viewBox="20.5 20 160 160" xmlns="http://www.w3.org/2000/svg" data-type="color" role="presentation" aria-hidden="true" aria-label=""> <g> <path d="M176.598 49.268c0-14.009-11.357-25.366-25.366-25.366H49.768c-14.009 0-25.366 11.357-25.366 25.366v101.463c0 14.009 11.357 25.366 25.366 25.366h101.463c14.009 0 25.366-11.357 25.366-25.366V49.268zm3.902 101.464c0 16.165-13.103 29.268-29.268 29.268H49.768C33.604 180 20.5 166.897 20.5 150.732V49.268C20.5 33.104 33.604 20 49.768 20h101.463c16.165 0 29.268 13.104 29.268 29.268v101.464z" fill="#7e7e78" data-color="1"/> <path d="M120.38 58.341c6.541.021 13.114 2.632 18.633 8.125.102.09.169.167.199.202l.548.629c5.555 6.535 7.305 14.058 6.364 21.513-.962 7.615-4.621 15.099-9.455 21.936-9.625 13.635-24.294 25.286-34.619 30.489l-.001-.002a3.5 3.5 0 0 1-.996.337l-.04.008-.041.005a3.4 3.4 0 0 1-.954-.002l-.036-.006-.036-.007c-.223-.04-.479-.129-.531-.146l-.15-.052-.047-.017-.013-.005-.005-.002-.108-.04-.103-.052c-10.326-5.193-25.005-16.855-34.639-30.5-4.822-6.833-8.491-14.316-9.454-21.932l-.084-.721c-.777-7.46 1.185-14.953 6.997-21.424l.035-.039.082-.082.003-.004.001-.001c5.712-5.722 12.571-8.349 19.338-8.19 6.534.154 12.881 2.885 17.933 7.727l.485.475.002.002.812.816.812-.816.002-.002c4.98-4.989 11.297-7.872 17.833-8.18l.022-.046zm-39.203 3.92c-5.642-.133-11.486 2.039-16.485 7.048l-.002.002c-5.162 5.763-6.772 12.363-5.922 19.016l.001.003c.852 6.744 4.148 13.622 8.769 20.173 9.177 12.997 23.201 24.162 32.963 29.14 9.765-4.978 23.803-16.145 32.981-29.149l.001-.001c4.629-6.548 7.917-13.426 8.77-20.171.841-6.656-.769-13.258-5.923-19.022l-.457-.447c-4.497-4.308-9.632-6.374-14.686-6.589h-1.388c-5.657.141-11.257 2.581-15.722 7.056l-.001-.001-1.694 1.705-.005.004a2.657 2.657 0 0 1-3.754 0l-.004-.004-1.696-1.705c-4.471-4.482-10.081-6.924-15.746-7.058m55.974 6.185-.006-.006-.014-.016.001.001.015.017z" fill="#7e7e78" data-color="1"/> </g> </svg>